# xmcd
# 
# Track frame offsets:
#     150
#     19975
#     40287
#     58856
#     77562
#     96157
#     117382
#     140383
#     158928
#     178990
#     197240
# 
# Disc length: 2897
# 
# Revision: 0
# Processed by: cddbd v1.5.2PL0 Copyright (c) Steve Scherf et al.
# Submitted via: BonkEnc v1.0.5
# 
DISCID=9c0b4f0b
DTITLE=йаяажытгс йыстас  еилаи еды - еилаи еды
DYEAR=2004
DGENRE=казйа
TTITLE0=Unknown1
TTITLE1=Uncnown2
TTITLE2=Unknown3
TTITLE3=Unknown4
TTITLE4=Unknown5
TTITLE5=Unknown6
TTITLE6=Unknown7
TTITLE7=Unknown8
TTITLE8=Unknown9
TTITLE9=Unknown10
TTITLE10=Unknown11
EXTD=
EXTT0=
EXTT1=
EXTT2=
EXTT3=
EXTT4=
EXTT5=
EXTT6=
EXTT7=
EXTT8=
EXTT9=
EXTT10=
PLAYORDER=
